<?xml version="1.0" encoding="utf-8"?>
<svg xmlns="http://www.w3.org/2000/svg">
  <defs>
    <svg id="truck" xmlns="http://www.w3.org/2000/svg" width="86" height="60" viewBox="0 0 86 60" fill="none">
      <g clip-path="url(#clip0_866_23961)">
      <path d="M20.0673 43.2556C15.3238 43.2556 11.4673 47.01 11.4673 51.6278C11.4673 56.2456 15.3238 60 20.0673 60C24.8107 60 28.6673 56.2456 28.6673 51.6278C28.6673 47.01 24.8107 43.2556 20.0673 43.2556ZM20.0673 57.2087C16.9044 57.2087 14.3345 54.7052 14.3345 51.6278C14.3345 48.5504 16.9061 46.0469 20.0673 46.0469C23.2285 46.0469 25.8001 48.5504 25.8001 51.6278C25.8001 54.7052 23.2285 57.2087 20.0673 57.2087Z" fill="#ED1C24"/>
      <path d="M68.8002 43.2556C64.0568 43.2556 60.2002 47.01 60.2002 51.6278C60.2002 56.2456 64.0568 60 68.8002 60C73.5436 60 77.4002 56.2456 77.4002 51.6278C77.4002 47.01 73.5436 43.2556 68.8002 43.2556ZM68.8002 57.2087C65.6373 57.2087 63.0674 54.7052 63.0674 51.6278C63.0674 48.5504 65.639 46.0469 68.8002 46.0469C71.9614 46.0469 74.533 48.5504 74.533 51.6278C74.533 54.7052 71.9614 57.2087 68.8002 57.2087Z" fill="#ED1C24"/>
      <path d="M85.7713 35.5245L72.8713 15.9889C72.6076 15.5899 72.1541 15.3479 71.6653 15.3479H55.8981C55.1053 15.3479 54.4653 15.9725 54.4653 16.7427V51.6262C54.4653 52.398 55.1053 53.021 55.8981 53.021H61.6309V50.2298H57.3309V18.1392H70.8809L83.1309 36.6888V50.233H75.9636V53.0243H84.5637C85.3565 53.0243 85.9964 52.4013 85.9964 51.6295V36.28C85.9964 36.0134 85.9175 35.7502 85.768 35.5245H85.7713Z" fill="#ED1C24"/>
      <path d="M63.0672 33.4887V23.7217H74.5344V20.9304H61.6344C60.8416 20.9304 60.2017 21.5551 60.2017 22.3252V34.8835C60.2017 35.6553 60.8416 36.2783 61.6344 36.2783H83.1344V33.487H63.0672V33.4887Z" fill="#ED1C24"/>
      <path d="M55.9 5.58093H1.43277C0.641641 5.58093 0 6.20557 0 6.97575V51.6279C0 52.3997 0.641641 53.0227 1.43277 53.0227H12.9V50.2314H2.86723V8.3722H54.4672V50.2331H27.2328V53.0243H55.9C56.6928 53.0243 57.3328 52.4013 57.3328 51.6295V6.97738C57.3328 6.20721 56.6928 5.58257 55.9 5.58257V5.58093Z" fill="#ED1C24"/>
      <path d="M10.0326 44.6521H1.43262V47.4434H10.0326V44.6521Z" fill="#ED1C24"/>
      <path d="M54.4673 44.6521H30.1001V47.4434H54.4673V44.6521Z" fill="#ED1C24"/>
      <path d="M84.5658 44.6521H78.833V47.4434H84.5658V44.6521Z" fill="#ED1C24"/>
      <path d="M55.9001 11.1635H5.73291V13.9547H55.9001V11.1635Z" fill="#ED1C24"/>
      <path d="M21.5 50.233H18.6328V53.0243H21.5V50.233Z" fill="#ED1C24"/>
      <path d="M70.2344 50.233H67.3672V53.0243H70.2344V50.233Z" fill="#ED1C24"/>
      <path d="M25.8001 0H5.73291V2.79127H25.8001V0Z" fill="#ED1C24"/>
      <path d="M2.86723 0H0V2.79127H2.86723V0Z" fill="#ED1C24"/>
      </g>
      <defs>
        <clipPath id="clip0_866_23961">
          <rect width="86" height="60" fill="white"/>
        </clipPath>
      </defs>
    </svg>
  </defs>
</svg>
