<?xml version="1.0" encoding="utf-8"?>
<svg xmlns="http://www.w3.org/2000/svg">
  <defs>
    <svg id="truck" xmlns="http://www.w3.org/2000/svg" viewBox="0 0 86 60" fill="none">
      <g clip-path="url(#clip0_866_23961)">
      <path d="M20.0673 43.2556C15.3238 43.2556 11.4673 47.01 11.4673 51.6278C11.4673 56.2456 15.3238 60 20.0673 60C24.8107 60 28.6673 56.2456 28.6673 51.6278C28.6673 47.01 24.8107 43.2556 20.0673 43.2556ZM20.0673 57.2087C16.9044 57.2087 14.3345 54.7052 14.3345 51.6278C14.3345 48.5504 16.9061 46.0469 20.0673 46.0469C23.2285 46.0469 25.8001 48.5504 25.8001 51.6278C25.8001 54.7052 23.2285 57.2087 20.0673 57.2087Z" fill="#ED1C24"/>
      <path d="M68.8002 43.2556C64.0568 43.2556 60.2002 47.01 60.2002 51.6278C60.2002 56.2456 64.0568 60 68.8002 60C73.5436 60 77.4002 56.2456 77.4002 51.6278C77.4002 47.01 73.5436 43.2556 68.8002 43.2556ZM68.8002 57.2087C65.6373 57.2087 63.0674 54.7052 63.0674 51.6278C63.0674 48.5504 65.639 46.0469 68.8002 46.0469C71.9614 46.0469 74.533 48.5504 74.533 51.6278C74.533 54.7052 71.9614 57.2087 68.8002 57.2087Z" fill="#ED1C24"/>
      <path d="M85.7713 35.5245L72.8713 15.9889C72.6076 15.5899 72.1541 15.3479 71.6653 15.3479H55.8981C55.1053 15.3479 54.4653 15.9725 54.4653 16.7427V51.6262C54.4653 52.398 55.1053 53.021 55.8981 53.021H61.6309V50.2298H57.3309V18.1392H70.8809L83.1309 36.6888V50.233H75.9636V53.0243H84.5637C85.3565 53.0243 85.9964 52.4013 85.9964 51.6295V36.28C85.9964 36.0134 85.9175 35.7502 85.768 35.5245H85.7713Z" fill="#ED1C24"/>
      <path d="M63.0672 33.4887V23.7217H74.5344V20.9304H61.6344C60.8416 20.9304 60.2017 21.5551 60.2017 22.3252V34.8835C60.2017 35.6553 60.8416 36.2783 61.6344 36.2783H83.1344V33.487H63.0672V33.4887Z" fill="#ED1C24"/>
      <path d="M55.9 5.58093H1.43277C0.641641 5.58093 0 6.20557 0 6.97575V51.6279C0 52.3997 0.641641 53.0227 1.43277 53.0227H12.9V50.2314H2.86723V8.3722H54.4672V50.2331H27.2328V53.0243H55.9C56.6928 53.0243 57.3328 52.4013 57.3328 51.6295V6.97738C57.3328 6.20721 56.6928 5.58257 55.9 5.58257V5.58093Z" fill="#ED1C24"/>
      <path d="M10.0326 44.6521H1.43262V47.4434H10.0326V44.6521Z" fill="#ED1C24"/>
      <path d="M54.4673 44.6521H30.1001V47.4434H54.4673V44.6521Z" fill="#ED1C24"/>
      <path d="M84.5658 44.6521H78.833V47.4434H84.5658V44.6521Z" fill="#ED1C24"/>
      <path d="M55.9001 11.1635H5.73291V13.9547H55.9001V11.1635Z" fill="#ED1C24"/>
      <path d="M21.5 50.233H18.6328V53.0243H21.5V50.233Z" fill="#ED1C24"/>
      <path d="M70.2344 50.233H67.3672V53.0243H70.2344V50.233Z" fill="#ED1C24"/>
      <path d="M25.8001 0H5.73291V2.79127H25.8001V0Z" fill="#ED1C24"/>
      <path d="M2.86723 0H0V2.79127H2.86723V0Z" fill="#ED1C24"/>
      </g>
    </svg>
    <svg id="crescimento" xmlns="http://www.w3.org/2000/svg" viewBox="0 0 90 60" fill="none">
      <g clip-path="url(#clip0_17_385)" style="transform: translate(-40px, -23px);">
      <g clip-path="url(#clip1_17_385)">
      <path d="M81.1389 91.4308C78.4525 92.0195 75.5249 92.3 72.4584 92.3" stroke="#F13030" stroke-width="2.83333" stroke-miterlimit="10"/>
      <path d="M72.4584 92.3C59.3256 92.3 48.7147 86.0184 48.7083 73.5997C48.719 64.6151 58.7747 52.8127 69.2083 42.9993C69.2083 42.9993 62.375 34.4992 61.555 30.8038C67.5 25.9991 74.3333 31.0992 82.0379 29.8794C82.875 32.7992 76.0417 42.9993 76.0417 42.9993C82.5525 49.1237 88.5317 56.7398 92.4224 63.4421" stroke="#F13030" stroke-width="2.83333" stroke-miterlimit="10" stroke-linejoin="round"/>
      <path d="M65.7917 42.9993H79.4583" stroke="#F13030" stroke-width="2.83333" stroke-miterlimit="10" stroke-linecap="round"/>
      <path d="M67.5 73.5997C67.5 75.4783 69.0289 76.9998 70.9167 76.9998H74.3333C76.221 76.9998 77.75 75.4783 77.75 73.5997V72.6498C77.75 71.1857 76.8275 69.8873 75.4331 69.4241L69.8468 67.5732C68.4524 67.1099 67.5021 65.8115 67.5021 64.3474V63.3975C67.5021 61.5189 69.0311 59.9974 70.9188 59.9974H74.3355C76.2232 59.9974 77.7521 61.5189 77.7521 63.3975" stroke="#F13030" stroke-width="2.83333" stroke-miterlimit="10" stroke-linecap="round"/>
      <path d="M72.625 59.9996V54.8995" stroke="#F13030" stroke-width="2.83333" stroke-miterlimit="10"/>
      <path d="M72.625 76.9998V82.0998" stroke="#F13030" stroke-width="2.83333" stroke-miterlimit="10"/>
      <path d="M99.9583 68.4997H86.2917V92.3H99.9583V68.4997Z" stroke="#F13030" stroke-width="2.83333" stroke-miterlimit="10"/>
      <path d="M113.625 46.3994H99.9583V92.3H113.625V46.3994Z" stroke="#F13030" stroke-width="2.83333" stroke-miterlimit="10"/>
      <path d="M127.292 59.9996H113.625V92.3H127.292V59.9996Z" stroke="#F13030" stroke-width="2.83333" stroke-miterlimit="10"/>
      </g>
      </g>
    </svg>
    <svg id="board" fill="none" viewBox="0 0 60 71" xmlns="http://www.w3.org/2000/svg" xmlns:xlink="http://www.w3.org/1999/xlink">
      <clipPath id="a"><path d="m0 0h60v71h-60z"/>
      </clipPath>
      <g clip-path="url(#a)" fill="#ed1c24"><path d="m50.3774 21.0781h-20.3773c-.7812 0-1.4151.6213-1.4151 1.3867 0 .7655.6339 1.3868 1.4151 1.3868h20.3773c.7811 0 1.4151-.6213 1.4151-1.3868 0-.7654-.634-1.3867-1.4151-1.3867z"/><path d="m45.4258 28.1407c-.2632-.2579-.6283-.4063-1.0005-.4063-.3721 0-.7372.1484-1.0004.4063s-.4146.6157-.4146.9804.1514.7225.4146.9804.6283.4063 1.0004.4063c.3722 0 .7373-.1484 1.0005-.4063s.4146-.6157.4146-.9804-.1514-.7225-.4146-.9804z"/><path d="m30.9991 6.3692c-.2632-.25793-.6283-.40631-1.0005-.40631s-.7373.14838-1.0005.40631-.4146.6157-.4146.98041.1514.72248.4146.98041.6283.40631 1.0005.40631.7373-.14838 1.0005-.40631.4146-.6157.4146-.98041-.1514-.72248-.4146-.98041z"/><path d="m38.4736 27.7344h-8.4735c-.7812 0-1.4151.6212-1.4151 1.3867s.6339 1.3867 1.4151 1.3867h8.4735c.7812 0 1.4151-.6212 1.4151-1.3867s-.6339-1.3867-1.4151-1.3867z"/><path d="m50.3774 36.0547h-20.3773c-.7812 0-1.4151.6212-1.4151 1.3867s.6339 1.3867 1.4151 1.3867h20.3773c.7811 0 1.4151-.6212 1.4151-1.3867s-.634-1.3867-1.4151-1.3867z"/><path d="m45.4258 43.1172c-.2632-.2579-.6283-.4063-1.0005-.4063-.3721 0-.7372.1484-1.0004.4063-.2632.258-.4146.6157-.4146.9805 0 .3647.1514.7224.4146.9804.2632.2579.6283.4063 1.0004.4063.3722 0 .7373-.1484 1.0005-.4063.2632-.258.4146-.6157.4146-.9804 0-.3648-.1514-.7225-.4146-.9805z"/><path d="m38.4736 42.7109h-8.4735c-.7812 0-1.4151.6213-1.4151 1.3868 0 .7654.6339 1.3867 1.4151 1.3867h8.4735c.7812 0 1.4151-.6213 1.4151-1.3867 0-.7655-.6339-1.3868-1.4151-1.3868z"/><path d="m50.3774 51.0312h-20.3773c-.7812 0-1.4151.6213-1.4151 1.3868 0 .7654.6339 1.3867 1.4151 1.3867h20.3773c.7811 0 1.4151-.6213 1.4151-1.3867 0-.7655-.634-1.3868-1.4151-1.3868z"/><path d="m45.4258 58.0938c-.2632-.2579-.6283-.4063-1.0005-.4063-.3721 0-.7372.1484-1.0004.4063s-.4146.6157-.4146.9804.1514.7225.4146.9804c.2632.258.6283.4063 1.0004.4063.3722 0 .7373-.1483 1.0005-.4063.2632-.2579.4146-.6157.4146-.9804s-.1514-.7225-.4146-.9804z"/><path d="m38.4736 57.6875h-8.4735c-.7812 0-1.4151.6212-1.4151 1.3867s.6339 1.3867 1.4151 1.3867h8.4735c.7812 0 1.4151-.6212 1.4151-1.3867s-.6339-1.3867-1.4151-1.3867z"/><path d="m53.1 5.4082h-10.8085c-1.5623-1.45883-3.675-2.35742-5.9986-2.35742h-1.2396c-.9467-1.83879-2.8939-3.05078-5.0533-3.05078s-4.1066 1.21199-5.0547 3.05078h-1.2425c-2.3236 0-4.4349.89859-5.9971 2.35742h-10.8057c-3.80519 0-6.9 3.03276-6.9 6.7616v52.0686c0 3.7288 3.09481 6.7616 6.9 6.7616h46.2c3.8052 0 6.9-3.0328 6.9-6.7616v-52.0686c0-3.72884-3.0948-6.7616-6.9-6.7616zm-29.3972.41602h2.2062c.6368 0 1.1943-.41602 1.3641-1.01785.3368-1.19674 1.459-2.03293 2.7269-2.03293s2.3901.83619 2.7269 2.03293c.1698.60045.7273 1.01785 1.3641 1.01785h2.2033c3.0708 0 5.5996 2.32275 5.8515 5.26958h-24.2944c.2519-2.94683 2.7807-5.26958 5.8514-5.26958zm33.467 58.41418c0 2.1993-1.8255 3.9882-4.0698 3.9882h-46.2c-2.24434 0-4.06981-1.7889-4.06981-3.9882v-52.0686c0-2.19929 1.82547-3.98816 4.06981-3.98816h8.8231c-.4641 1.04143-.7217 2.18966-.7217 3.39746v.9014c0 .7654.634 1.3867 1.4151 1.3867h27.167c.7811 0 1.4151-.6213 1.4151-1.3867v-.9014c0-1.2078-.259-2.35603-.7231-3.39746h8.8259c2.2444 0 4.0698 1.78887 4.0698 3.98816v52.0686z"/><path d="m21.0013 20.7453c-.5519-.5408-1.449-.5408-2.0009 0l-6.051 5.9296-1.8636-1.8263c-.5519-.5408-1.4491-.5408-2.00099 0-.55188.5409-.55188 1.42 0 1.9609l2.86559 2.8067c.2759.2704.6382.4063 1.0005.4063.3622 0 .7245-.1359 1.0004-.4063l7.0514-6.91c.5519-.5409.5519-1.42 0-1.9609z"/><path d="m17.5474 51.0312h-6.7925c-.78109 0-1.41506.6213-1.41506 1.3868v6.6562c0 .7655.63397 1.3867 1.41506 1.3867h6.7925c.7811 0 1.4151-.6212 1.4151-1.3867v-6.6562c0-.7655-.634-1.3868-1.4151-1.3868zm-1.4151 6.6563h-3.9623v-3.8828h3.9623z"/><path d="m17.5474 36.0547h-6.7925c-.78109 0-1.41506.6212-1.41506 1.3867v6.6563c0 .7654.63397 1.3867 1.41506 1.3867h6.7925c.7811 0 1.4151-.6213 1.4151-1.3867v-6.6563c0-.7655-.634-1.3867-1.4151-1.3867zm-1.4151 6.6562h-3.9623v-3.8828h3.9623z"/>
      </g>
    </svg>
    <svg id="user" fill="none" viewBox="0 0 85 55" xmlns="http://www.w3.org/2000/svg" xmlns:xlink="http://www.w3.org/1999/xlink">
      <clipPath id="a">
      <path d="m0 0h85v55h-85z"/>
      </clipPath>
      <g clip-path="url(#a)"><path d="m73.5131 24.2007c2.4891-1.7825 4.1373-4.7476 4.1373-8.0898 0-5.4674-4.3392-9.88934-9.7042-9.88934-5.3651 0-9.7042 4.42194-9.7042 9.88934 0 3.3422 1.6314 6.3073 4.1373 8.0898-2.1359.7541-4.0869 1.9196-5.7351 3.4278-2.2704-1.971-4.9446-3.4792-7.8709-4.3705 3.5486-2.1938 5.9368-6.1873 5.9368-10.7292 0-6.92425-5.4996-12.5288-12.2942-12.5288s-12.2942 5.62169-12.2942 12.5288c0 4.5419 2.3714 8.5354 5.9369 10.7292-2.8928.8913-5.5333 2.3824-7.7869 4.3191-1.6482-1.474-3.5655-2.6223-5.6678-3.3593 2.4891-1.7825 4.1373-4.7476 4.1373-8.0897 0-5.4675-4.3391-9.8894-9.7042-9.8894s-9.70419 4.4219-9.70419 9.8894c0 3.3421 1.63138 6.3072 4.13729 8.0897-6.67687 2.3481-11.4701 8.8096-11.4701 16.4023v1.1312c0 .0343.0336367.0686.0672735.0686h20.5688265c-.1177.9426-.185 1.9196-.185 2.8965v1.1655c0 5.039 4.0028 9.1181 8.9474 9.1181h26.0685c4.9446 0 8.9473-4.0791 8.9473-9.1181v-1.1655c0-.9769-.0672-1.9539-.185-2.8965h20.7034c.0337 0 .0673-.0343.0673-.0686v-1.1312c-.0336-7.6098-4.81-14.0713-11.4869-16.4194zm-12.5802-8.1069c0-3.942 3.1451-7.14709 7.0133-7.14709s7.0132 3.20509 7.0132 7.14709-3.0777 7.0614-6.8787 7.1471h-.2691c-3.8177-.0686-6.8787-3.2393-6.8787-7.1471zm-28.1539-3.565c0-5.39885 4.3055-9.78651 9.6033-9.78651s9.6033 4.38766 9.6033 9.78651c0 5.3989-4.0196 9.4781-9.0483 9.7694h-1.11c-5.0287-.2913-9.0483-4.559-9.0483-9.7694zm-22.80571 3.565c0-3.942 3.14501-7.14709 7.01321-7.14709 3.8683 0 7.0133 3.20509 7.0133 7.14709s-3.0778 7.0614-6.8787 7.1471h-.2691c-3.801-.0686-6.87871-3.2393-6.87871-7.1471zm11.13371 22.9667h-18.38243c.75683-7.3014 6.81144-13.0259 14.16103-13.0773h.2019c3.4982.0171 6.6937 1.3368 9.166 3.4793-2.4219 2.6737-4.2214 5.9644-5.1465 9.598zm40.5828 6.8214c0 3.5136-2.8087 6.3758-6.2565 6.3758h-26.0684c-3.4478 0-6.2565-2.8622-6.2565-6.3758v-1.1655c0-10.6435 8.3419-19.3502 18.7189-19.6587.185.0171.3868.0171.5718.0171s.3868 0 .5718-.0171c10.3769.3085 18.7189 9.0152 18.7189 19.6587zm2.0013-6.8214c-.925-3.6164-2.6909-6.8558-5.0959-9.5295 2.4891-2.1938 5.7182-3.5135 9.2501-3.5478h.2018c7.3496.0514 13.4042 5.7759 14.1611 13.0773z" fill="#ed1c24"/>
      </g>
    </svg>
    <svg id="pin" fill="none" viewBox="0 0 53 71" xmlns="http://www.w3.org/2000/svg" xmlns:xlink="http://www.w3.org/1999/xlink">
      <clipPath id="a">
      <path d="m0 0h53v71h-53z"/>
      </clipPath>
      <g clip-path="url(#a)" fill="#ed1c24"><path d="m26.5 0c-14.612 0-26.5 11.7658-26.5 26.2277 0 4.7615 2.15702 9.8817 2.2486 10.0977.69758 1.6373 2.07129 4.1791 3.06309 5.6698l18.17001 27.2479c.7444 1.1166 1.8433 1.7569 3.0202 1.7569 1.177 0 2.2759-.6403 3.0203-1.7549l18.172-27.2499c.9937-1.4907 2.3655-4.0325 3.063-5.6698.0897-.2141 2.2467-5.3343 2.2467-10.0977 0-14.4619-11.888-26.2277-26.5-26.2277zm21.3793 35.1278c-.6216 1.4676-1.9018 3.8319-2.7923 5.1684l-18.172 27.2498c-.3585.5381-.4715.5381-.83 0l-18.17007-27.2498c-.89048-1.3365-2.17066-3.7027-2.79225-5.1703-.02728-.0637-2.00503-4.7769-2.00503-8.8982 0-12.7609 10.48895-23.14209 23.38235-23.14209s23.3824 10.38119 23.3824 23.14209c0 4.129-1.9836 8.8538-2.0031 8.9001z"/><path d="m26.5001 12.3444c-7.7356 0-14.0294 6.229-14.0294 13.8852s6.2938 13.8853 14.0294 13.8853c7.7357 0 14.0294-6.2291 14.0294-13.8853s-6.2937-13.8852-14.0294-13.8852zm0 24.6849c-6.0151 0-10.9117-4.8444-10.9117-10.7997 0-5.9552 4.8966-10.7996 10.9117-10.7996s10.9118 4.8444 10.9118 10.7996c0 5.9553-4.8967 10.7997-10.9118 10.7997z"/>
      </g>
    </svg>
    <svg id="tractor" fill="none" viewBox="0 0 85 63" xmlns="http://www.w3.org/2000/svg" xmlns:xlink="http://www.w3.org/1999/xlink">
      <clipPath id="a"><path d="m0 0h85v63h-85z"/></clipPath>
      <g clip-path="url(#a)" fill="#ed1c24"><path d="m66.5841 25.7725c-10.1552 0-18.4161 8.3509-18.4161 18.6129s8.2626 18.6129 18.4161 18.6129 18.4161-8.3509 18.4161-18.6129-8.2626-18.6129-18.4161-18.6129zm0 34.3633c-8.593 0-15.5839-7.0656-15.5839-15.7504s6.9909-15.7504 15.5839-15.7504c8.5929 0 15.5839 7.0656 15.5839 15.7504s-6.991 15.7504-15.5839 15.7504z"/><path d="m66.584 35.7946c-4.6883 0-8.5 3.8524-8.5 8.5908s3.8117 8.5908 8.5 8.5908 8.5-3.8524 8.5-8.5908-3.8117-8.5908-8.5-8.5908zm0 14.3175c-3.1261 0-5.6661-2.5689-5.6661-5.7267s2.5417-5.7267 5.6661-5.7267 5.6661 2.5689 5.6661 5.7267-2.5417 5.7267-5.6661 5.7267z"/><path d="m15.5841 41.5229c-3.1261 0-5.66613 2.5689-5.66613 5.7267s2.54173 5.7267 5.66613 5.7267 5.6661-2.5689 5.6661-5.7267-2.5417-5.7267-5.6661-5.7267zm0 8.5909c-1.5622 0-2.8339-1.2836-2.8339-2.8642s1.27-2.8642 2.8339-2.8642c1.5638 0 2.8339 1.2836 2.8339 2.8642 0 1.5789-1.2701 2.8642-2.8339 2.8642z"/><path d="m76.5 15.7504h-5.3557l-1.4161-7.15957h1.1057c.7819 0 1.4161-.63928 1.4161-1.43124v-5.72834c0-.791971-.6342-1.43125-1.4161-1.43125h-29.75c-3.9064 0-7.0839 3.21149-7.0839 7.15959 0 .79196.6342 1.43124 1.4161 1.43124h2.6911l-1.2152 12.89797c-.0216 0-.0382-.0117-.0598-.0117h-15.5839c-5.3855 0-9.4728 5.4448-9.8762 10.6227-6.54935 1.8625-11.3721 7.9399-11.3721 15.1498 0 8.6848 6.99092 15.7504 15.5839 15.7504 7.6251 0 13.9752-5.5673 15.3133-12.8862h13.419c.4217 0 .8218-.1913 1.0907-.5185.269-.3272.3802-.7601.3005-1.1796-.2473-1.3205-.3719-2.6762-.3719-4.0286 0-11.8426 9.5327-21.4771 21.25-21.4771 6.0928 0 11.9017 2.6494 15.9375 7.2703.3885.4447 1.0127.599 1.5622.391.5512-.2098.9148-.7433.9165-1.339v-4.891c0-4.7384-3.8118-8.5909-8.5-8.5909zm-60.9161 44.3854c-7.02912 0-12.75001-5.7803-12.75001-12.8862s5.72089-12.8863 12.75001-12.8863c7.0291 0 12.75 5.7804 12.75 12.8863s-5.7209 12.8862-12.75 12.8862zm27.0821-12.8862h-11.4982c0-8.6848-6.9909-15.7504-15.5839-15.7504-.435 0-.865.0302-1.29.0654.176-1.0118.5346-2.0353 1.0393-2.9816.0847.0151.161.052.2507.052h2.8339c.7819 0 1.4161-.6393 1.4161-1.4313 0-.7919-.6342-1.4312-1.4161-1.4312h-.8168c1.0658-.8759 2.3126-1.4312 3.6507-1.4312h15.3747l-1.202 12.7503c-.0365.401.093.8003.3619 1.099.2673.297.6475.4681 1.0476.4681h6.3683c-.4416 1.839-.7005 3.7518-.7005 5.7267 0 .9564.0547 1.9145.166 2.8642zm23.9179-27.2038c-10.2963 0-19.0785 6.5757-22.5167 15.7807-.0515-.0051-.0963-.0302-.1494-.0302h-5.525l2.5649-27.20379h25.8818l2.296 11.60599c-.845-.0906-1.695-.151-2.5516-.151zm2.8339-14.31746h-32.3415c.5843-1.66615 2.1598-2.86417 4.0076-2.86417h28.3339zm12.75 20.10116c-2.9036-2.49-6.3518-4.2232-10.039-5.1058l-.4167-2.1091h4.7879c3.1261 0 5.6661 2.5689 5.6661 5.7267v1.4882z"/>
      </g>
    </svg>
    <svg id="arrow-left" viewBox="0 0 24 24">
      <path d="M11.672 3.891l-8.109 8.109 8.109 8.109-1.781 1.781-9.891-9.891 9.891-9.891z"></path>
    </svg>
    <svg id="arrow-right" viewBox="0 0 24 24">
      <path d="M5.859 4.125l2.156-2.109 9.984 9.984-9.984 9.984-2.156-2.109 7.922-7.875z"></path>
    </svg>
  </defs>
</svg>
